<?xml version="1.0" encoding="utf-8"?>
<!-- Generator: Adobe Illustrator 24.1.1, SVG Export Plug-In . SVG Version: 6.00 Build 0)  -->
<svg version="1.1" id="Layer_1" xmlns="http://www.w3.org/2000/svg" xmlns:xlink="http://www.w3.org/1999/xlink" x="0px" y="0px"
	 viewBox="0 0 512 512" style="enable-background:new 0 0 512 512;" xml:space="preserve">
<style type="text/css">
	.st0{fill:#1e88e5;}
</style>
<g>
	<path class="st0" d="M397.7,34.8L366.3,0h-247c-17.8,0-24.7,13.2-24.7,23.5v92.9h34.6V42.3c0-4,3.3-7.3,7.2-7.3h176.7
		c3.9,0,5.8,0.7,5.8,3.9v123.4h125.8c4.9,0,6.9,2.5,6.9,6.3v301.3c0,6.3-2.5,7.3-6.4,7.3H136.4c-3.9,0-7.2-3.4-7.2-7.3v-27.5H94.9
		v43.4c-0.4,15.4,7.7,26.3,24.5,26.3h343c17.9,0,24-13,24-24.8V165v-32.2l-8.9-9.7L397.7,34.8z M354.2,38.9l9.9,11.1l66.5,73.1
		l3.7,4.4h-67.9c-5.1,0-8.4-0.9-9.7-2.5c-1.4-1.7-2.2-4.4-2.4-8V38.9z M326.3,273.1h117.2v34.1H326.3V273.1z M326.3,204.8h117.2
		v34.1H326.3V204.8z M326.3,341.4h117.2v34.1H326.3V341.4z M25.6,144v273.1h267.9V144H25.6z M159.6,302.9l-16.4,25h16.4v30.5H77.2
		l59.8-89.8l-53-80.8h44.2l31.3,47l31.3-47h44.2l-53,80.8l59.8,89.8H196L159.6,302.9z"/>
</g>
</svg>
